<mxfile host="app.diagrams.net" modified="2024-05-19T14:20:37.837Z" agent="Mozilla/5.0 (Macintosh; Intel Mac OS X 10_15_7) AppleWebKit/537.36 (KHTML, like Gecko) Chrome/124.0.0.0 Safari/537.36" version="24.4.2" etag="BzrvnjIt8V0bFqUTQvYP" type="github">
  <diagram name="Page-1" id="ilZP2qW8_-uFimZYdBFT">
    <mxGraphModel>
      <root>
        <mxCell id="0" />
        <mxCell id="1" parent="0" />
      </root>
    </mxGraphModel>
  </diagram>
</mxfile>
